HIERARCHY
ROOT Hips
{
     OFFSET 25.08770 93.61990 -30.85030
     CHANNELS 6 Xposition Yposition Zposition Zrotation Xrotation Yrotation
     JOINT Spine
     {
          OFFSET 0.00000 11.89050 0.00000
          CHANNELS 3 Zrotation Xrotation Yrotation
          JOINT Spine1
          {
               OFFSET 0.00000 25.65740 0.12766
               CHANNELS 3 Zrotation Xrotation Yrotation
               JOINT HEad
               {
                    OFFSET 0.00000 8.73416 0.01134
                    CHANNELS 3 Zrotation Xrotation Yrotation
                    End Site
                    {
                         OFFSET -0.29000 12.77420 2.51395
                    }
               }
               JOINT LeftShoulder1
               {
                    OFFSET 8.99000 -0.36225 -0.22000
                    CHANNELS 3 Zrotation Xrotation Yrotation
                    JOINT LeftArm
                    {
                         OFFSET 10.28270 -0.00338 0.32212
                         CHANNELS 3 Zrotation Xrotation Yrotation
                         JOINT LeftForeArm
                         {
                              OFFSET 32.76690 0.09914 -1.42434
                              CHANNELS 3 Zrotation Xrotation Yrotation
                              JOINT LeftHand
                              {
                                   OFFSET 27.56430 0.08536 1.02216
                                   CHANNELS 3 Zrotation Xrotation Yrotation
                                   End Site
                                   {
                                        OFFSET 16.74430 -0.60000 1.50291
                                   }
                              }
                         }
                    }
               }
               JOINT RightShoulder
               {
                    OFFSET -8.99000 -0.36225 -0.22000
                    CHANNELS 3 Zrotation Xrotation Yrotation
                    JOINT RightArm
                    {
                         OFFSET -10.28270 -0.00338 0.32212
                         CHANNELS 3 Zrotation Xrotation Yrotation
                         JOINT RightForeArm
                         {
                              OFFSET -32.89710 0.09914 -1.42434
                              CHANNELS 3 Zrotation Xrotation Yrotation
                              JOINT RightHand
                              {
                                   OFFSET -27.49210 0.08536 1.02216
                                   CHANNELS 3 Zrotation Xrotation Yrotation
                                   End Site
                                   {
                                        OFFSET -16.63120 -0.60000 1.50291
                                   }
                              }
                         }
                    }
               }
          }
     }
     JOINT LeftUpLeg
     {
          OFFSET 8.94580 -8.66707 0.10165
          CHANNELS 3 Zrotation Xrotation Yrotation
          JOINT LeftLeg
          {
               OFFSET 0.00000 -44.42270 1.37270
               CHANNELS 3 Zrotation Xrotation Yrotation
               JOINT LeftFoot
               {
                    OFFSET -0.25355 -42.09240 -1.46059
                    CHANNELS 3 Zrotation Xrotation Yrotation
                    JOINT LeftToes
                    {
                         OFFSET -0.04000 -4.41509 8.49910
                         CHANNELS 3 Zrotation Xrotation Yrotation
                         End Site
                         {
                              OFFSET 0.08000 -0.04745 9.77979
                         }
                    }
               }
          }
     }
     JOINT RightUpLeg
     {
          OFFSET -8.94580 -8.66707 0.10165
          CHANNELS 3 Zrotation Xrotation Yrotation
          JOINT RightLeg
          {
               OFFSET 0.00000 -44.42270 1.37270
               CHANNELS 3 Zrotation Xrotation Yrotation
               JOINT RightFoot
               {
                    OFFSET 0.25355 -42.09240 -1.46059
                    CHANNELS 3 Zrotation Xrotation Yrotation
                    JOINT RightToes
                    {
                         OFFSET 0.04000 -4.41509 8.49910
                         CHANNELS 3 Zrotation Xrotation Yrotation
                         End Site
                         {
                              OFFSET -0.08000 -0.13745 9.77979
                         }
                    }
               }
          }
     }
}
MOTION
Frames: 7
Frame Time: 0.01667
25.08770 93.61990 -30.85030 -4.13101 -7.85182 -31.93980 4.53277 5.54751 1.42727 2.04156 11.59780 3.70967 -7.82700 10.33880 6.13892 0.00000 0.00000 0.00000 -87.55070 -39.83280 -60.58230 14.53880 34.55290 -101.52500 38.25880 13.94020 16.42930 8.91342 0.75837 3.28352 73.49940 -19.97800 76.34990 -4.45678 31.57190 92.36450 -4.20530 9.59799 5.76775 19.40750 -17.92280 9.42920 -5.09339 32.83350 9.42628 -8.00369 0.55023 0.55560 -11.12510 -12.85570 -5.54049 -2.96850 -8.79960 -6.30279 7.05245 46.57340 -21.22230 -4.60339 -29.80370 -1.25829 -1.00958 -0.37093 -7.61623 
24.82020 93.58870 -30.52880 -4.00742 -7.68211 -32.80610 4.18467 5.47814 1.42467 2.04106 11.41400 3.64507 -7.82979 10.48680 6.06691 0.00000 0.00000 0.00000 -87.12990 -40.08630 -59.93680 14.52640 34.55080 -101.63200 38.48550 13.95790 16.40440 8.91568 0.75576 3.26131 73.11450 -19.88270 76.08830 -4.39814 31.52930 92.30840 -4.11192 9.60314 5.86959 19.54470 -18.98120 8.33384 -6.24259 34.82570 13.12600 -6.06616 1.42190 0.45694 -11.16480 -13.09420 -5.22637 -2.44680 -9.02944 -5.84848 5.65126 46.95850 -19.60960 -4.31551 -30.16810 -1.21763 -0.79580 0.59810 -8.07691 
24.56030 93.55790 -30.18310 -3.88204 -7.54703 -33.76140 3.72531 5.42887 1.40230 2.01923 11.25770 3.54511 -7.67964 10.56010 5.98227 0.00000 0.00000 0.00000 -86.75140 -40.44050 -59.35770 14.47490 34.57390 -101.75400 38.60450 13.93040 16.28220 8.85830 0.74698 3.21017 72.83890 -19.85060 75.91870 -4.25338 31.48920 92.21960 -4.04938 9.60437 6.01779 19.62840 -20.44670 7.05962 -7.58355 37.40110 17.16100 -4.09611 2.52321 0.33307 -10.18880 -12.24920 -4.37130 -1.98637 -9.17909 -5.35019 4.28979 47.28080 -17.97280 -4.07904 -30.56020 -1.18709 -0.60134 1.52503 -8.69318 
24.31240 93.52570 -29.79390 -3.75419 -7.47355 -34.76780 3.21047 5.39976 1.35626 1.96908 11.13600 3.39965 -7.42542 10.56930 5.84152 0.00000 0.00000 0.00000 -86.44260 -40.85920 -58.83700 14.43300 34.64540 -101.93000 38.63080 13.88620 16.14240 8.73343 0.72807 3.09920 72.73100 -19.89800 75.83250 -4.05141 31.46340 92.14960 -3.97826 9.60694 6.15211 19.48730 -22.24440 5.89221 -8.65220 40.46490 20.89620 -2.35737 3.59614 0.19406 -7.71121 -9.72759 -2.67830 -1.63994 -9.20491 -4.82431 3.04789 47.51550 -16.40750 -3.98225 -30.94190 -1.18425 -0.47514 2.18167 -9.31609 
24.08160 93.47450 -29.32570 -3.66508 -7.44660 -35.80030 2.72490 5.38015 1.28680 1.91953 11.03760 3.21774 -7.13380 10.58140 5.58346 0.00000 0.00000 0.00000 -86.14500 -41.23870 -58.28280 14.43390 34.73920 -102.16200 38.64780 13.85530 16.04500 8.60252 0.70166 2.92540 72.70360 -20.05800 75.77870 -3.81363 31.44940 92.10970 -3.91660 9.60915 6.27359 19.06520 -24.28360 5.10102 -9.05468 43.89020 23.82920 -0.83900 4.43333 0.04615 -4.19135 -5.73956 -0.62016 -1.37756 -9.09893 -4.25217 1.94773 47.69650 -14.98800 -4.00727 -31.31980 -1.20709 -0.41534 2.55345 -9.82837 
23.86470 93.39480 -28.75430 -3.67340 -7.43315 -36.84640 2.35194 5.35589 1.19193 1.91105 10.94430 2.99837 -6.84284 10.68000 5.18009 0.00000 0.00000 0.00000 -85.74430 -41.51190 -57.54760 14.48160 34.79680 -102.41500 38.70180 13.84200 15.98790 8.53479 0.67665 2.73850 72.60740 -20.35280 75.68040 -3.54217 31.43580 92.07680 -3.92635 9.60454 6.40763 18.42230 -26.40720 4.73100 -8.68362 47.34670 25.74090 0.53742 4.96277 -0.10449 -1.04708 -1.82069 0.85096 -1.12098 -8.84540 -3.62661 0.96351 47.82280 -13.73940 -4.21523 -31.63750 -1.26778 -0.44535 2.56359 -10.17720 
23.65150 93.28240 -28.07210 -3.79928 -7.42143 -37.90600 2.12091 5.31601 1.06810 1.95950 10.83670 2.73345 -6.55830 10.91260 4.63816 0.00000 0.00000 0.00000 -85.12570 -41.68280 -56.49580 14.57790 34.77120 -102.66300 38.79350 13.84130 15.95570 8.55248 0.66161 2.60594 72.35130 -20.77680 75.46910 -3.24579 31.41630 92.04990 -4.04935 9.58970 6.52729 17.63750 -28.42840 4.65434 -7.71725 50.37410 26.56470 1.64616 5.24294 -0.23208 0.39726 0.06098 1.44144 -0.84386 -8.43315 -2.96788 0.07231 47.88350 -12.68210 -4.73941 -31.78240 -1.39139 -0.65307 1.90021 -10.26930 
